<?xml version="1.0" encoding="UTF-8" standalone="no"?>
<svg
   enable-background="new 0 0 91 91"
   height="91px"
   id="Layer_1"
   version="1.1"
   viewBox="0 0 91 91"
   width="91px"
   xml:space="preserve"
   sodipodi:docname="brush_black.svg"
   inkscape:version="1.2.2 (732a01da63, 2022-12-09)"
   xmlns:inkscape="http://www.inkscape.org/namespaces/inkscape"
   xmlns:sodipodi="http://sodipodi.sourceforge.net/DTD/sodipodi-0.dtd"
   xmlns="http://www.w3.org/2000/svg"
   xmlns:svg="http://www.w3.org/2000/svg"><defs
     id="defs9" /><sodipodi:namedview
     id="namedview7"
     pagecolor="#ffffff"
     bordercolor="#000000"
     borderopacity="0.25"
     inkscape:showpageshadow="2"
     inkscape:pageopacity="0.0"
     inkscape:pagecheckerboard="0"
     inkscape:deskcolor="#d1d1d1"
     showgrid="false"
     inkscape:zoom="11.285714"
     inkscape:cx="45.5"
     inkscape:cy="45.234177"
     inkscape:window-width="3840"
     inkscape:window-height="2054"
     inkscape:window-x="-11"
     inkscape:window-y="-11"
     inkscape:window-maximized="1"
     inkscape:current-layer="Layer_1" /><g
     id="g4"><path
       d="M26.618,69.43c0.58,0.078,1.414,0.156,2.41,0.156c4.28,0,11.537-1.473,14.468-10.706l25.979-26.366   c2.083-2.113,2.059-5.529-0.058-7.615c-2.043-2.008-5.6-1.984-7.612,0.059L36.043,51.105c-4.038,0.211-10.714,2.785-11.685,11.363   c-0.137,0.382-0.695,1.697-1.9,1.906c-1.168,0.202-1.675,1.088-1.66,1.875C20.838,68.343,24.461,69.141,26.618,69.43z    M64.227,27.342c0.736-0.746,2.058-0.758,2.805-0.02c0.779,0.768,0.789,2.025,0.021,2.805L47.09,50.39l-2.826-2.783L64.227,27.342z    M41.877,50.027l2.826,2.783l-2.706,2.747l-2.825-2.783L41.877,50.027z M27.67,63.271L27.721,63   c0.742-7.223,6.361-8.323,8.377-8.481l3.962,3.905c-1.288,3.609-3.525,6.006-6.684,7.101c-2.618,0.905-5.286,0.755-7.163,0.392   C27.005,65.025,27.473,64.002,27.67,63.271z"
       id="path2" /></g><path
     style="fill:#000000;stroke-width:0.0886076"
     d="m 27.335443,66.046686 c -1.10303,-0.135984 -1.06536,-0.104653 -0.700517,-0.582625 0.340929,-0.446641 0.838062,-1.389549 0.995477,-1.888112 0.05385,-0.170569 0.156526,-0.70886 0.228157,-1.196202 0.222568,-1.514246 0.757664,-2.979363 1.476893,-4.043803 1.320528,-1.954347 3.368572,-3.217688 5.926347,-3.655682 l 0.749143,-0.128283 1.643262,1.580262 c 2.342393,2.252589 2.3373,2.246975 2.263237,2.494551 -0.126731,0.423634 -0.705119,1.645407 -1.0763,2.273547 -0.713885,1.208091 -1.77413,2.395698 -2.866458,3.210791 -0.68236,0.509176 -2.29231,1.283352 -3.206622,1.541968 -1.585714,0.448524 -3.728036,0.603733 -5.432619,0.393588 z"
     id="path184" /></svg>
